<mxfile host="app.diagrams.net" modified="2024-03-20T15:35:09.843Z" agent="Mozilla/5.0 (Windows NT 10.0; Win64; x64) AppleWebKit/537.36 (KHTML, like Gecko) Chrome/121.0.0.0 Safari/537.36 OPR/107.0.0.0" version="22.1.16" etag="OB5MqFxInCxL6AEgdsC8" type="github">
  <diagram name="Page-1" id="ZZ_e5xYxg6d-odDxBFqS">
    <mxGraphModel>
      <root>
        <mxCell id="0" />
        <mxCell id="1" parent="0" />
      </root>
    </mxGraphModel>
  </diagram>
</mxfile>
